<svg width="32" height="32" viewBox="0 0 32 32" fill="none" xmlns="http://www.w3.org/2000/svg">
<g clip-path="url(#clip0_41_2)">
<path d="M22.1996 1.23119C20.9112 1.24442 19.5897 1.49603 18.2968 2.01211L18.2381 2.03702L18.1794 2.06726C17.3598 2.48465 16.6127 3.00679 15.9487 3.62556C12.3747 0.534456 6.68484 0.310105 2.79212 3.81945L2.75298 3.85503L2.71741 3.89238C-0.697384 7.45921 -0.617428 12.9523 1.42951 17.2926L1.4473 17.3264L1.46508 17.362C3.87585 21.8262 8.37751 25.6194 12.4799 28.7379L12.4905 28.7468L12.4994 28.7539C12.7634 28.9474 13.2171 29.3474 13.7411 29.7412C14.265 30.1349 14.8568 30.5664 15.7227 30.732L15.9166 30.7694L16.1123 30.7533C17.0212 30.675 17.3777 30.3394 17.9748 29.9635C18.5719 29.5877 19.2328 29.1106 19.912 28.5885C21.2507 27.5593 22.6359 26.373 23.548 25.527C23.5597 25.5161 23.5791 25.5004 23.5907 25.4897C23.5926 25.4881 23.5941 25.4859 23.596 25.4843C25.5174 23.8448 27.4206 21.9547 29.034 19.7315C29.0345 19.7308 29.0353 19.7304 29.0358 19.7297C29.0388 19.7256 29.0416 19.7213 29.0447 19.7172C31.6035 16.2721 32.8447 11.6293 31.3643 7.05522L31.3377 6.97339L31.3021 6.8969C29.6399 3.30347 26.0649 1.19147 22.1996 1.23119ZM22.2459 4.04536C25.0308 3.98131 27.4718 5.47251 28.6836 8.02292C29.8033 11.5935 28.8354 15.2314 26.75 18.0326L26.7446 18.0397L26.7393 18.0469C25.2865 20.0517 23.5271 21.8066 21.7033 23.3586L21.6802 23.3799L21.6571 23.4013C20.8358 24.1657 19.4458 25.3565 18.1758 26.3329C17.5408 26.821 16.9321 27.2573 16.4592 27.5549C16.2814 27.6669 16.1123 27.7432 15.9736 27.8022C15.8277 27.7225 15.6426 27.6103 15.4506 27.466C15.0639 27.1754 14.6522 26.8045 14.2036 26.4734C14.1966 26.4681 14.1892 26.4627 14.1823 26.4574C10.2011 23.4293 6.00758 19.7524 3.99109 16.0456C2.35401 12.5482 2.42543 8.36211 4.73821 5.9025C7.88291 3.10644 12.5548 3.71432 14.8849 6.58381L16.0198 7.98023L17.1174 6.55535C17.7489 5.73608 18.5026 5.10974 19.4175 4.63417C20.3765 4.25953 21.3293 4.06644 22.2459 4.04536Z" fill="black"/>
</g>
<defs>
<clipPath id="clip0_41_2">
<rect width="32" height="32" fill="white"/>
</clipPath>
</defs>
</svg>
